<svg width="25" height="24" viewBox="0 0 25 24" fill="none" xmlns="http://www.w3.org/2000/svg">
<path fill-rule="evenodd" clip-rule="evenodd" d="M12.8456 2C8.66159 2.00551 5.27113 5.39597 5.26562 9.58C5.26562 12.43 7.18563 16.3 10.9756 21.09C11.4264 21.664 12.1157 21.9995 12.8456 22C13.5755 21.9995 14.2648 21.664 14.7156 21.09C18.5056 16.3 20.4256 12.43 20.4256 9.58C20.4201 5.39597 17.0297 2.00551 12.8456 2ZM15.2156 10.48C14.9725 11.0656 14.5093 11.5324 13.9256 11.78C13.5836 11.9237 13.2166 11.9984 12.8456 12C12.1583 12.0026 11.4989 11.7287 11.0156 11.24C10.2525 10.4743 10.038 9.31851 10.4756 8.33C10.7145 7.7312 11.1824 7.25248 11.7756 7C12.7641 6.55624 13.9239 6.76936 14.6901 7.53552C15.4563 8.30168 15.6694 9.46153 15.2256 10.45L15.2156 10.48Z" fill="black"/>
</svg>
